<svg id="SvgjsSvg1006" width="680.34375" height="374.5" xmlns="http://www.w3.org/2000/svg" version="1.1" xmlns:xlink="http://www.w3.org/1999/xlink" xmlns:svgjs="http://svgjs.com/svgjs"><defs id="SvgjsDefs1007"><marker id="SvgjsMarker1026" markerWidth="16" markerHeight="12" refX="16" refY="6" viewBox="0 0 16 12" orient="auto" markerUnits="userSpaceOnUse"><path id="SvgjsPath1027" d="M0,2 L14,6 L0,11 L0,2" fill="#323232" stroke="#323232" stroke-width="2"></path></marker><marker id="SvgjsMarker1030" markerWidth="16" markerHeight="12" refX="16" refY="6" viewBox="0 0 16 12" orient="auto" markerUnits="userSpaceOnUse"><path id="SvgjsPath1031" d="M0,2 L14,6 L0,11 L0,2" fill="#323232" stroke="#323232" stroke-width="2"></path></marker><marker id="SvgjsMarker1048" markerWidth="16" markerHeight="12" refX="16" refY="6" viewBox="0 0 16 12" orient="auto" markerUnits="userSpaceOnUse"><path id="SvgjsPath1049" d="M0,2 L14,6 L0,11 L0,2" fill="#323232" stroke="#323232" stroke-width="2"></path></marker><marker id="SvgjsMarker1082" markerWidth="16" markerHeight="12" refX="16" refY="6" viewBox="0 0 16 12" orient="auto" markerUnits="userSpaceOnUse"><path id="SvgjsPath1083" d="M0,2 L14,6 L0,11 L0,2" fill="#323232" stroke="#323232" stroke-width="2"></path></marker><marker id="SvgjsMarker1092" markerWidth="16" markerHeight="12" refX="16" refY="6" viewBox="0 0 16 12" orient="auto" markerUnits="userSpaceOnUse"><path id="SvgjsPath1093" d="M0,2 L14,6 L0,11 L0,2" fill="#323232" stroke="#323232" stroke-width="2"></path></marker><marker id="SvgjsMarker1096" markerWidth="16" markerHeight="12" refX="16" refY="6" viewBox="0 0 16 12" orient="auto" markerUnits="userSpaceOnUse"><path id="SvgjsPath1097" d="M0,2 L14,6 L0,11 L0,2" fill="#323232" stroke="#323232" stroke-width="2"></path></marker></defs><g id="SvgjsG1008" transform="translate(28.34375,35.83333333333323)"><path id="SvgjsPath1009" d="M 0 4Q 0 0 4 0L 119 0Q 123 0 123 4L 123 34Q 123 38 119 38L 4 38Q 0 38 0 34Z" stroke="rgba(50,50,50,1)" stroke-width="2" fill-opacity="1" fill="#ffffff"></path><g id="SvgjsG1010"><text id="SvgjsText1011" font-family="微软雅黑" text-anchor="middle" font-size="13px" width="78" fill="#323232" font-weight="400" align="middle" anchor="middle" family="微软雅黑" size="13px" weight="400" font-style="" opacity="1" y="1.05" transform="rotate(0)"><tspan id="SvgjsTspan1012" dy="16" x="61.5"><tspan id="SvgjsTspan1013" style="text-decoration:;">渲染个人信息</tspan></tspan><tspan id="SvgjsTspan1014" dy="16" x="61.5"><tspan id="SvgjsTspan1015" style="text-decoration:;">PersonalInfo</tspan></tspan></text></g></g><g id="SvgjsG1016" transform="translate(25.010416666666686,155.5)"><path id="SvgjsPath1017" d="M 0 4Q 0 0 4 0L 125.66666666666663 0Q 129.66666666666663 0 129.66666666666663 4L 129.66666666666663 43Q 129.66666666666663 47 125.66666666666663 47L 4 47Q 0 47 0 43Z" stroke="rgba(50,50,50,1)" stroke-width="2" fill-opacity="1" fill="#ffffff"></path><g id="SvgjsG1018"><text id="SvgjsText1019" font-family="微软雅黑" text-anchor="middle" font-size="13px" width="83" fill="#323232" font-weight="400" align="middle" anchor="middle" family="微软雅黑" size="13px" weight="400" font-style="" opacity="1" y="5.55" transform="rotate(0)"><tspan id="SvgjsTspan1020" dy="16" x="65"><tspan id="SvgjsTspan1021" style="text-decoration:;">异步获取</tspan></tspan><tspan id="SvgjsTspan1022" dy="16" x="65"><tspan id="SvgjsTspan1023" style="text-decoration:;">getDataInfo()</tspan></tspan></text></g></g><g id="SvgjsG1024"><path id="SvgjsPath1025" d="M89.84375000000017 202.5L89.84375000000017 253.33333333333331L89.84375000000017 253.33333333333331L89.84375000000017 302.5" stroke="#323232" stroke-width="2" fill="none" marker-end="url(#SvgjsMarker1026)"></path></g><g id="SvgjsG1028"><path id="SvgjsPath1029" d="M89.84375000000023 73.83333333333326L89.84375000000023 115.91666666666663L89.84375000000023 115.91666666666663L89.84375000000023 155.5" stroke="#323232" stroke-width="2" fill="none" marker-end="url(#SvgjsMarker1030)"></path></g><g id="SvgjsG1032" transform="translate(38.510416666666686,302.5)"><path id="SvgjsPath1033" d="M 0 4Q 0 0 4 0L 98.66666666666663 0Q 102.66666666666663 0 102.66666666666663 4L 102.66666666666663 43Q 102.66666666666663 47 98.66666666666663 47L 4 47Q 0 47 0 43Z" stroke="rgba(50,50,50,1)" stroke-width="2" fill-opacity="1" fill="#ffffff"></path><g id="SvgjsG1034"><text id="SvgjsText1035" font-family="微软雅黑" text-anchor="middle" font-size="13px" width="78" fill="#323232" font-weight="400" align="middle" anchor="middle" family="微软雅黑" size="13px" weight="400" font-style="" opacity="1" y="5.55" transform="rotate(0)"><tspan id="SvgjsTspan1036" dy="16" x="51.5"><tspan id="SvgjsTspan1037" style="text-decoration:;">直接获取数据</tspan></tspan><tspan id="SvgjsTspan1038" dy="16" x="51.5"><tspan id="SvgjsTspan1039" style="text-decoration:;">进行渲染</tspan></tspan></text></g></g><g id="SvgjsG1040" transform="translate(270.3437500000005,155.5)"><path id="SvgjsPath1041" d="M 0 4Q 0 0 4 0L 132 0Q 136 0 136 4L 136 43Q 136 47 132 47L 4 47Q 0 47 0 43Z" stroke="rgba(50,50,50,1)" stroke-width="2" fill-opacity="1" fill="#ffffff"></path><g id="SvgjsG1042"><text id="SvgjsText1043" font-family="微软雅黑" text-anchor="middle" font-size="13px" width="90" fill="#323232" font-weight="400" align="middle" anchor="middle" family="微软雅黑" size="13px" weight="400" font-style="" opacity="1" y="13.55" transform="rotate(0)"><tspan id="SvgjsTspan1044" dy="16" x="68"><tspan id="SvgjsTspan1045" style="text-decoration:;">throw Promise</tspan></tspan></text></g></g><g id="SvgjsG1046"><path id="SvgjsPath1047" d="M154.67708333333331 179L212.5104166666669 179L212.5104166666669 179L270.3437500000005 179" stroke="#323232" stroke-width="2" fill="none" marker-end="url(#SvgjsMarker1048)"></path></g><g id="SvgjsG1050" transform="translate(91.01041666666677,241.33333333333331)"><path id="SvgjsPath1051" d="M 0 0L 94.83333333333317 0L 110.83333333333317 16L 110.83333333333317 23.33333333333337L 0 23.33333333333337L 0 0Z" stroke="none" fill-opacity="1" fill="#ffffaa"></path><path id="SvgjsPath1052" d="M 94.83333333333317 0L 94.83333333333317 16L 110.83333333333317 16Z" stroke="none" fill-opacity="1" fill="#cdcdcd"></path><path id="SvgjsPath1053" d="M 0 0L 94.83333333333317 0L 110.83333333333317 16L 110.83333333333317 23.33333333333337L 0 23.33333333333337L 0 0Z" stroke="none" fill="none"></path><g id="SvgjsG1054"><text id="SvgjsText1055" font-family="微软雅黑" text-anchor="middle" font-size="13px" width="78" fill="#323232" font-weight="400" align="middle" anchor="middle" family="微软雅黑" size="13px" weight="400" font-style="" opacity="1" y="1.7166666666666857" transform="rotate(0)"><tspan id="SvgjsTspan1056" dy="16" x="55.5"><tspan id="SvgjsTspan1057" style="text-decoration:;">完成信息获取</tspan></tspan></text></g></g><g id="SvgjsG1058" transform="translate(176.01041666666657,145.8333333333331)"><path id="SvgjsPath1059" d="M 0 0L 60 0L 76 16L 76 28L 0 28L 0 0Z" stroke="none" fill-opacity="1" fill="#ffffaa"></path><path id="SvgjsPath1060" d="M 60 0L 60 16L 76 16Z" stroke="none" fill-opacity="1" fill="#cdcdcd"></path><path id="SvgjsPath1061" d="M 0 0L 60 0L 76 16L 76 28L 0 28L 0 0Z" stroke="none" fill="none"></path><g id="SvgjsG1062"><text id="SvgjsText1063" font-family="微软雅黑" text-anchor="middle" font-size="13px" width="52" fill="#323232" font-weight="400" align="middle" anchor="middle" family="微软雅黑" size="13px" weight="400" font-style="" opacity="1" y="4.05" transform="rotate(0)"><tspan id="SvgjsTspan1064" dy="16" x="38"><tspan id="SvgjsTspan1065" style="text-decoration:;">异步操作</tspan></tspan></text></g></g><g id="SvgjsG1066" transform="translate(467.84375,155.5)"><path id="SvgjsPath1067" d="M 0 4Q 0 0 4 0L 132 0Q 136 0 136 4L 136 43Q 136 47 132 47L 4 47Q 0 47 0 43Z" stroke="rgba(50,50,50,1)" stroke-width="2" fill-opacity="1" fill="#ffffff"></path><g id="SvgjsG1068"><text id="SvgjsText1069" font-family="微软雅黑" text-anchor="middle" font-size="13px" width="88" fill="#323232" font-weight="400" align="middle" anchor="middle" family="微软雅黑" size="13px" weight="400" font-style="" opacity="1" y="13.55" transform="rotate(0)"><tspan id="SvgjsTspan1070" dy="16" x="68"><tspan id="SvgjsTspan1071" style="text-decoration:;">Suspense 捕获</tspan></tspan></text></g></g><g id="SvgjsG1072" transform="translate(544.3437499999997,239)"><path id="SvgjsPath1073" d="M 0 0L 95 0L 111 16L 111 28L 0 28L 0 0Z" stroke="none" fill-opacity="1" fill="#ffffaa"></path><path id="SvgjsPath1074" d="M 95 0L 95 16L 111 16Z" stroke="none" fill-opacity="1" fill="#cdcdcd"></path><path id="SvgjsPath1075" d="M 0 0L 95 0L 111 16L 111 28L 0 28L 0 0Z" stroke="none" fill="none"></path><g id="SvgjsG1076"><text id="SvgjsText1077" font-family="微软雅黑" text-anchor="middle" font-size="13px" width="65" fill="#323232" font-weight="400" align="middle" anchor="middle" family="微软雅黑" size="13px" weight="400" font-style="" opacity="1" y="4.05" transform="rotate(0)"><tspan id="SvgjsTspan1078" dy="16" x="55.5"><tspan id="SvgjsTspan1079" style="text-decoration:;">异步未完成</tspan></tspan></text></g></g><g id="SvgjsG1080"><path id="SvgjsPath1081" d="M406.34375000000034 179L437.0937500000002 179L437.0937500000002 179L467.84375 179" stroke="#323232" stroke-width="2" fill="none" marker-end="url(#SvgjsMarker1082)"></path></g><g id="SvgjsG1084" transform="translate(467.84375,302.5)"><path id="SvgjsPath1085" d="M 0 4Q 0 0 4 0L 132 0Q 136 0 136 4L 136 43Q 136 47 132 47L 4 47Q 0 47 0 43Z" stroke="rgba(50,50,50,1)" stroke-width="2" fill-opacity="1" fill="#ffffff"></path><g id="SvgjsG1086"><text id="SvgjsText1087" font-family="微软雅黑" text-anchor="middle" font-size="13px" width="100" fill="#323232" font-weight="400" align="middle" anchor="middle" family="微软雅黑" size="13px" weight="400" font-style="" opacity="1" y="13.55" transform="rotate(0)"><tspan id="SvgjsTspan1088" dy="16" x="68"><tspan id="SvgjsTspan1089" style="text-decoration:;">降级渲染fallback</tspan></tspan></text></g></g><g id="SvgjsG1090"><path id="SvgjsPath1091" d="M535.84375 202.5L535.84375 250.83333333333331L535.84375 250.83333333333331L535.84375 302.5" stroke="#323232" stroke-width="2" fill="none" marker-end="url(#SvgjsMarker1092)"></path></g><g id="SvgjsG1094"><path id="SvgjsPath1095" d="M535.84375 155.5L535.84375 54.83333333333323L151.34375 54.83333333333323" stroke="#323232" stroke-width="2" fill="none" marker-end="url(#SvgjsMarker1096)"></path></g><g id="SvgjsG1098" transform="translate(299.34375000000006,24.99999999999997)"><path id="SvgjsPath1099" d="M 0 0L 75.83333333333337 0L 91.83333333333337 16L 91.83333333333337 25L 0 25L 0 0Z" stroke="none" fill-opacity="1" fill="#ffffaa"></path><path id="SvgjsPath1100" d="M 75.83333333333337 0L 75.83333333333337 16L 91.83333333333337 16Z" stroke="none" fill-opacity="1" fill="#cdcdcd"></path><path id="SvgjsPath1101" d="M 0 0L 75.83333333333337 0L 91.83333333333337 16L 91.83333333333337 25L 0 25L 0 0Z" stroke="none" fill="none"></path><g id="SvgjsG1102"><text id="SvgjsText1103" font-family="微软雅黑" text-anchor="middle" font-size="13px" width="52" fill="#323232" font-weight="400" align="middle" anchor="middle" family="微软雅黑" size="13px" weight="400" font-style="" opacity="1" y="2.55" transform="rotate(0)"><tspan id="SvgjsTspan1104" dy="16" x="46"><tspan id="SvgjsTspan1105" style="text-decoration:;">重新渲染</tspan></tspan></text></g></g></svg>